<svg width="97" height="26" viewBox="0 0 97 26" fill="none" xmlns="http://www.w3.org/2000/svg">
<path d="M17.41 25C16.955 24.335 16.885 23.74 16.885 22.165V11.49C16.885 7.08 12.16 6.24 9.01 6.24C5.02 6.24 1.31 7.885 1.31 11.91H6.7C6.84 11.105 7.26 9.775 9.535 9.775C11.495 9.775 11.6 11.35 11.6 11.98V12.995C7.575 13.765 5.65 14.15 4.39 14.675C2.115 15.62 0.54 17.65 0.54 19.925C0.54 22.55 2.36 25.49 6.525 25.49C9.325 25.49 10.69 24.3 12.125 23.355V25H17.41ZM11.6 16.25V17.055C11.6 19.645 9.99 21.535 7.89 21.535C6.35 21.535 5.825 20.31 5.825 19.68C5.825 18.875 6.28 18 8.135 17.405L11.6 16.25ZM21.8203 0.289999V25H26.7903V23.075C27.6303 24.23 29.4853 25.49 32.1103 25.49C38.0253 25.49 40.0903 20.205 40.0903 15.515C40.0903 9.53 36.6603 6.205 32.2853 6.205C28.9953 6.205 27.8753 7.535 27.0703 8.41V0.289999L21.8203 0.289999ZM34.8403 15.655C34.8403 17.265 34.5953 21.5 30.9553 21.5C27.7353 21.5 26.9303 18.63 26.9303 15.725C26.9303 11.49 28.8903 10.125 31.1653 10.125C34.5253 10.125 34.8403 14.01 34.8403 15.655ZM62.0353 15.865C62.0353 11.49 59.6903 6.17 52.0253 6.17C45.2003 6.17 42.4003 11.14 42.4003 15.76C42.4003 22.97 47.4403 25.56 52.2003 25.56C58.3253 25.56 62.0353 21.78 62.0353 15.865ZM56.5753 16.04C56.5753 18.77 55.2453 21.255 52.2703 21.255C49.1203 21.255 47.8253 18.84 47.8253 15.795C47.8253 11.98 49.9603 10.44 51.9903 10.44C54.9303 10.44 56.5753 12.155 56.5753 16.04ZM81.8453 25V6.73L76.4903 6.73V18.14C76.4903 19.82 75.5803 21.15 73.4103 21.15C71.2403 21.15 70.8203 19.68 70.8203 18.455V6.73H65.3953V18.98C65.3953 23.495 67.1103 25.525 71.1353 25.525C74.1453 25.525 75.9653 23.985 76.4553 23.285V25H81.8453ZM96.2133 10.475V7.185H92.6433V1.445H87.3233V7.15H84.6633V10.44H87.3233V19.96C87.3233 24.23 89.5983 25.14 92.5383 25.14C94.4983 25.14 95.5833 24.93 95.9333 24.86V20.695C95.9333 20.695 94.4283 20.73 94.0433 20.73C93.2033 20.73 92.6433 20.45 92.6433 19.225V10.475H96.2133Z" fill="black"/>
</svg>
