<svg width="92" height="26" viewBox="0 0 92 26" fill="none" xmlns="http://www.w3.org/2000/svg">
<path d="M16.9742 25.1336C16.2742 24.0136 16.2042 23.6286 16.2042 22.2986V12.0786C16.2042 8.99864 13.9992 7.10863 8.85424 7.10863C1.50424 7.10863 1.25924 11.5886 1.18924 12.7436L5.45924 12.9886C5.45924 12.0786 5.80924 10.3636 8.99424 10.3636C11.6192 10.3636 12.0042 11.6586 12.0042 12.9886C10.8842 13.3736 9.23924 13.7936 6.61424 14.2836C3.28924 14.8786 0.384243 16.3836 0.384243 20.1986C0.384243 23.1386 2.76424 25.5536 6.75424 25.5536C8.88924 25.5536 10.7442 24.6786 11.8992 23.7686L12.0042 25.1336H16.9742ZM12.0042 18.7636C12.0042 20.9686 9.62424 21.9486 7.69924 21.9486C5.59924 21.9486 4.82924 20.9686 4.82924 19.8136C4.82924 18.0636 6.75424 17.6786 8.67924 17.3986C10.2892 17.1536 11.3042 16.7686 12.0042 16.4186V18.7636ZM20.684 0.423635V25.1336H24.849V23.3136C26.704 25.4486 28.629 25.6586 29.644 25.6586C33.354 25.6586 37.589 22.5086 37.589 16.2786C37.589 10.6786 33.949 7.10863 29.889 7.10863C29.084 7.10863 26.669 7.31864 24.884 9.10364V0.423635L20.684 0.423635ZM24.814 15.9636C24.814 13.1286 26.389 10.9236 28.909 10.9236C31.919 10.9236 33.284 13.6186 33.284 15.9636C33.284 19.7086 31.359 21.6686 29.084 21.6686C26.564 21.6686 24.814 19.7436 24.814 15.9636ZM58.8162 16.3136C58.7812 9.66364 53.6012 7.10863 49.7862 7.10863C43.5912 7.10863 40.8262 12.1136 40.8262 16.3136C40.8262 20.5836 43.5562 25.6586 49.9262 25.6586C55.8762 25.6586 58.8162 21.0036 58.8162 16.3136ZM45.2012 16.2086C45.2012 12.6736 47.2662 10.8886 49.7162 10.8886C52.9362 10.8886 54.4412 13.7236 54.4412 16.5236C54.4412 19.1836 53.0062 21.8086 49.9262 21.8086C46.9162 21.8086 45.2012 19.2886 45.2012 16.2086ZM78.1015 25.1336V7.63364H73.9015V15.4386C73.9015 16.7686 73.8665 18.4136 73.2365 19.6386C72.9215 20.2686 71.8715 21.5986 69.8415 21.5986C66.8315 21.5986 66.4115 19.3936 66.4115 17.7136V7.63364H62.1765V18.6236C62.1765 20.2336 62.2465 21.8436 63.1915 23.2436C63.8915 24.2936 65.3265 25.5536 68.2315 25.5536C71.2765 25.5536 73.0265 24.1536 73.9015 23.3486V25.1336H78.1015ZM80.5517 10.6086H83.1067V21.0386C83.1067 23.9086 84.2967 25.2736 88.0417 25.2736C89.4767 25.2736 90.4917 25.0636 91.0517 24.9936V21.4586C90.5267 21.5986 89.8967 21.6686 89.3017 21.6686C89.1267 21.6686 88.2167 21.6686 87.7267 21.1436C87.3417 20.7236 87.3067 19.9536 87.3067 19.2886V10.6086H91.0517V7.63364H87.3067V1.40364H83.1067V7.63364H80.5517V10.6086Z" fill="black"/>
</svg>
