<svg width="178" height="63" viewBox="0 0 178 63" fill="none" xmlns="http://www.w3.org/2000/svg">
<path fill-rule="evenodd" clip-rule="evenodd" d="M22.158 0.947479C21.7419 1.3905 21.3374 1.83127 20.9449 2.26916L20.7741 2.45963L0 20.1062L2.58962 23.1548L22.3748 6.34828C27.0737 10.8998 31.7961 14.8485 36.5172 18.2503L19.6907 40.8483L22.899 43.2372L39.8052 20.5322C46.3718 24.9166 52.9246 28.2674 59.3965 30.7356L50.3588 56.0412L54.1257 57.3866L63.1648 32.0772C71.0439 34.6843 78.7823 36.0133 86.2571 36.3407L86.8677 62.907L90.8667 62.8151L90.2601 36.4218C93.7773 36.4106 97.2296 36.1829 100.604 35.7688C105.263 35.197 109.766 34.2707 114.079 33.072L124.241 59.1572L127.969 57.7051L117.922 31.9174C124.757 29.7091 131.06 26.8433 136.681 23.6743L153.1 45.2954L156.286 42.8763L140.151 21.629C145.705 18.208 150.484 14.5389 154.319 11.0236L175.194 24.718L177.388 21.3735L155.675 7.12958L155.631 7.08076C155.217 6.63073 154.803 6.18574 154.39 5.74577L151.277 8.27489C151.296 8.29448 151.314 8.31407 151.332 8.33368C140.563 18.1035 122.12 29.098 100.116 31.7986C77.6053 34.5615 51.1995 28.6703 25.2176 3.53303C25.2322 3.51756 25.2468 3.5021 25.2614 3.48663L22.158 0.947479Z" fill="black"/>
</svg>
