<svg width="178" height="91" viewBox="0 0 178 91" fill="none" xmlns="http://www.w3.org/2000/svg">
<path fill-rule="evenodd" clip-rule="evenodd" d="M100.116 59.7986C77.6053 62.5615 51.1995 56.6703 25.2176 31.533C35.7053 20.428 53.8598 7.89864 75.779 4.74925C98.1066 1.54117 124.641 8.01952 151.332 36.3337C140.563 46.1035 122.12 57.098 100.116 59.7986ZM155.631 35.0808C127.687 4.66777 99.3562 -2.67945 75.2101 0.789908C51.2092 4.2384 31.6514 18.3264 20.9449 30.2691L20.7741 30.4596L0 48.1062L2.58962 51.1547L22.3748 34.3483C27.0737 38.8998 31.7961 42.8485 36.5172 46.2503L19.6907 68.8483L22.899 71.2372L39.8052 48.5321C46.3718 52.9166 52.9246 56.2674 59.3965 58.7355L50.3588 84.0412L54.1257 85.3866L63.1648 60.0771C71.0439 62.6843 78.7823 64.0133 86.2571 64.3407L86.8677 90.907L90.8667 90.8151L90.2601 64.4218C93.7773 64.4106 97.2296 64.1829 100.604 63.7688C105.263 63.197 109.766 62.2707 114.079 61.072L124.241 87.1572L127.969 85.7051L117.922 59.9173C124.757 57.7091 131.06 54.8433 136.681 51.6743L153.1 73.2954L156.286 70.8763L140.151 49.629C145.705 46.208 150.484 42.5389 154.319 39.0236L175.194 52.718L177.388 49.3735L155.675 35.1296L155.631 35.0808Z" fill="black"/>
</svg>
