<svg width="202" height="141" viewBox="0 0 202 141" fill="none" xmlns="http://www.w3.org/2000/svg">
<path fill-rule="evenodd" clip-rule="evenodd" d="M166.181 14.8133C157.162 13.6267 146.649 17.4061 142.574 28.7267C140.556 34.3325 141.101 38.7752 141.584 42.049L141.641 42.4343L141.641 42.4344C141.861 43.9179 142.018 44.9748 141.957 45.851C141.901 46.6676 141.666 47.1652 141.085 47.6005C140.815 47.8027 140.076 48.2191 138.809 48.8448C137.589 49.4476 135.987 50.1928 134.09 51.0467C130.297 52.7535 125.363 54.8762 120.015 57.1308C116.911 58.4394 113.67 59.7913 110.435 61.1305L110.551 60.8458C93.3829 53.845 55.4556 38.3475 41.062 32.3502C33.4804 29.1912 27.6788 30.0471 23.4964 32.5762C19.4011 35.0527 17.0726 39.0026 16.0768 41.7184L16.2824 41.7938L15.9149 42.6879L85.5668 71.3119L15.9068 100.416L14.5906 100.966L15.0738 102.309C16.7084 106.849 22.9827 115.662 35.092 114.797C38.1278 114.58 43.4687 113.007 49.9438 110.721C56.4889 108.411 64.3851 105.299 72.6336 101.887C88.0513 95.5074 104.753 88.0523 116.27 82.7457C119.426 83.8309 125.773 86.5563 131.016 88.8076L131.016 88.8076L131.06 88.8264C131.343 88.948 131.623 89.0682 131.899 89.1867C132.072 89.2609 132.243 89.3344 132.413 89.4072L132.894 89.6135C136.449 91.1368 139.187 92.4095 140.839 93.8434C141.635 94.5348 142.08 95.1836 142.274 95.8179C142.461 96.4312 142.463 97.1897 142.081 98.2081C138.915 106.649 139.885 118.339 150.17 124.994C154.799 127.989 160.682 128.752 166.042 128.099C171.382 127.447 176.487 125.354 179.546 122.295C182.643 119.198 184.72 113.542 185.045 107.693C185.372 101.806 183.947 95.3492 179.577 90.7067C175.598 86.4783 169.918 84.5186 164.384 83.7771C159.05 83.0623 153.68 83.4543 149.684 84.1723L122.137 71.3172C122.634 70.5708 123.194 69.9639 123.817 69.5486C125.482 68.4387 129.635 66.4934 134.308 64.4638C138.794 62.5153 143.606 60.5533 146.769 59.3013C148.333 59.3098 150.07 59.3866 151.944 59.4693L151.944 59.4693C153.165 59.5233 154.445 59.5798 155.772 59.6216C159.194 59.7295 162.835 59.7333 166.183 59.2874C170.312 58.7374 175.287 57.4096 179.238 53.8586C183.241 50.2601 185.985 44.569 185.985 35.7347C185.985 28.409 182.636 23.3433 178.48 20.0467C174.374 16.7897 169.479 15.2473 166.181 14.8133L165.985 16.3005L166.181 14.8133ZM132.186 86.045C127.992 84.2437 122.972 82.0877 119.464 80.7286L119.483 80.3838C119.56 78.9963 119.89 76.7312 120.62 74.5522C120.681 74.3684 120.745 74.1872 120.811 74.0089L148.851 87.094L149.291 87.2993L149.767 87.208C153.561 86.4815 158.82 86.0583 163.986 86.7505C169.169 87.445 174.073 89.2354 177.393 92.7628C181.023 96.6203 182.348 102.164 182.05 107.527C181.75 112.927 179.827 117.772 177.424 120.174C174.983 122.615 170.588 124.522 165.679 125.121C160.789 125.717 155.671 124.98 151.8 122.475C143.051 116.814 142.055 106.82 144.89 99.2615C145.457 97.7479 145.559 96.3029 145.143 94.9415C144.733 93.601 143.872 92.5037 142.806 91.5781C140.732 89.778 137.522 88.3327 134.076 86.8561C133.472 86.5973 132.839 86.3255 132.187 86.0452L132.186 86.045ZM19.6803 40.9919L89.4911 69.6813C94.2915 67.7493 100.474 65.2377 106.893 62.5936C88.7751 55.2028 53.6444 40.8429 39.9082 35.1194C33.0898 32.2784 28.3081 33.1724 25.0488 35.1434C22.4932 36.6887 20.7395 38.9786 19.6803 40.9919ZM18.4616 102.6L90.0539 72.6885C98.1421 69.4365 110.47 64.4102 121.18 59.8952C126.536 57.6373 131.496 55.5037 135.321 53.7824C137.232 52.9222 138.871 52.1604 140.138 51.5347C141.358 50.9318 142.355 50.3982 142.885 50.0005C144.305 48.9358 144.847 47.5501 144.95 46.0575C145.034 44.8346 144.825 43.4388 144.62 42.0676L144.62 42.0674C144.597 41.915 144.574 41.7628 144.552 41.6113C144.089 38.4772 143.634 34.6371 145.396 29.7428C148.881 20.0633 157.809 16.7377 165.789 17.7877C168.658 18.1651 173.013 19.5398 176.615 22.3971C180.168 25.2147 182.985 29.4605 182.985 35.7347C182.985 43.9004 180.479 48.7094 177.232 51.6274C173.933 54.5928 169.659 55.7979 165.787 56.3136C162.692 56.726 159.25 56.7298 155.866 56.6231C154.634 56.5843 153.395 56.5298 152.186 56.4767L152.186 56.4767L152.186 56.4767L152.186 56.4767L152.185 56.4767L152.185 56.4766C150.137 56.3867 148.177 56.3005 146.485 56.3005H146.2L145.934 56.4053C142.756 57.6598 137.765 59.6914 133.113 61.7122C128.518 63.7076 124.088 65.7623 122.153 67.0524C119.931 68.5338 118.587 71.1781 117.775 73.5989C117.09 75.6446 116.718 77.7341 116.56 79.3078C105.051 84.6326 87.5624 92.463 71.4866 99.1145C63.26 102.518 55.4188 105.607 48.9451 107.892C42.4015 110.202 37.4424 111.621 34.8782 111.804C25.6725 112.462 20.4401 106.566 18.4616 102.6ZM172.485 36.7348C172.485 41.4292 168.68 45.2348 163.985 45.2348C159.291 45.2348 155.485 41.4292 155.485 36.7348C155.485 32.0404 159.291 28.2348 163.985 28.2348C168.68 28.2348 172.485 32.0404 172.485 36.7348ZM176.485 36.7348C176.485 43.6383 170.889 49.2348 163.985 49.2348C157.082 49.2348 151.485 43.6383 151.485 36.7348C151.485 29.8312 157.082 24.2348 163.985 24.2348C170.889 24.2348 176.485 29.8312 176.485 36.7348ZM162.985 115.235C167.68 115.235 171.485 111.429 171.485 106.735C171.485 102.04 167.68 98.2348 162.985 98.2348C158.291 98.2348 154.485 102.04 154.485 106.735C154.485 111.429 158.291 115.235 162.985 115.235ZM162.985 119.235C169.889 119.235 175.485 113.638 175.485 106.735C175.485 99.8312 169.889 94.2348 162.985 94.2348C156.082 94.2348 150.485 99.8312 150.485 106.735C150.485 113.638 156.082 119.235 162.985 119.235ZM112.485 72.7348C112.485 73.5632 111.814 74.2348 110.985 74.2348C110.157 74.2348 109.485 73.5632 109.485 72.7348C109.485 71.9064 110.157 71.2348 110.985 71.2348C111.814 71.2348 112.485 71.9064 112.485 72.7348ZM114.485 72.7348C114.485 74.6678 112.918 76.2348 110.985 76.2348C109.052 76.2348 107.485 74.6678 107.485 72.7348C107.485 70.8018 109.052 69.2348 110.985 69.2348C112.918 69.2348 114.485 70.8018 114.485 72.7348Z" fill="black"/>
</svg>
