<svg width="125" height="25" viewBox="0 0 125 25" fill="none" xmlns="http://www.w3.org/2000/svg">
<path d="M13.28 17.595C12.895 18.75 11.845 20.325 9.745 20.325C6.77 20.325 5.685 17.14 5.685 14.83C5.685 12.625 6.7 9.335 9.57 9.335C11.67 9.335 12.65 10.875 13.14 11.89L17.13 9.615C14.575 5.555 10.97 5.205 9.325 5.205C5.195 5.205 0.155 7.69 0.155 15.005C0.155 21.865 4.95 24.595 9.22 24.595C12.02 24.595 15.275 23.3 17.34 19.695L13.28 17.595ZM38.6222 14.865C38.6222 10.49 36.2772 5.17 28.6122 5.17C21.7872 5.17 18.9872 10.14 18.9872 14.76C18.9872 21.97 24.0272 24.56 28.7872 24.56C34.9122 24.56 38.6222 20.78 38.6222 14.865ZM33.1622 15.04C33.1622 17.77 31.8322 20.255 28.8572 20.255C25.7072 20.255 24.4122 17.84 24.4122 14.795C24.4122 10.98 26.5472 9.44 28.5772 9.44C31.5172 9.44 33.1622 11.155 33.1622 15.04ZM58.4672 24V10.875C58.4672 7.165 56.5072 5.275 52.7972 5.275C50.2422 5.275 48.5272 6.29 47.6522 7.34V5.73L42.1922 5.73V24H47.5822V13.78C47.5822 11.33 47.9322 9.58 50.4172 9.58C52.5872 9.58 53.0772 11.015 53.0772 12.73V24H58.4672ZM72.8002 9.475V6.185H69.2302V0.444999H63.9102V6.15H61.2502V9.44H63.9102V18.96C63.9102 23.23 66.1852 24.14 69.1252 24.14C71.0852 24.14 72.1702 23.93 72.5202 23.86V19.695C72.5202 19.695 71.0152 19.73 70.6302 19.73C69.7902 19.73 69.2302 19.45 69.2302 18.225V9.475H72.8002ZM91.6483 24C91.1933 23.335 91.1233 22.74 91.1233 21.165V10.49C91.1233 6.08 86.3983 5.24 83.2483 5.24C79.2583 5.24 75.5483 6.885 75.5483 10.91H80.9383C81.0783 10.105 81.4983 8.775 83.7733 8.775C85.7333 8.775 85.8383 10.35 85.8383 10.98V11.995C81.8133 12.765 79.8883 13.15 78.6283 13.675C76.3533 14.62 74.7783 16.65 74.7783 18.925C74.7783 21.55 76.5983 24.49 80.7633 24.49C83.5633 24.49 84.9283 23.3 86.3633 22.355V24H91.6483ZM85.8383 15.25V16.055C85.8383 18.645 84.2283 20.535 82.1283 20.535C80.5883 20.535 80.0633 19.31 80.0633 18.68C80.0633 17.875 80.5183 17 82.3733 16.405L85.8383 15.25ZM107.924 17.595C107.539 18.75 106.489 20.325 104.389 20.325C101.414 20.325 100.329 17.14 100.329 14.83C100.329 12.625 101.344 9.335 104.214 9.335C106.314 9.335 107.294 10.875 107.784 11.89L111.774 9.615C109.219 5.555 105.614 5.205 103.969 5.205C99.8386 5.205 94.7986 7.69 94.7986 15.005C94.7986 21.865 99.5936 24.595 103.864 24.595C106.664 24.595 109.919 23.3 111.984 19.695L107.924 17.595ZM124.446 9.475V6.185H120.876V0.444999L115.556 0.444999V6.15H112.896V9.44H115.556V18.96C115.556 23.23 117.831 24.14 120.771 24.14C122.731 24.14 123.816 23.93 124.166 23.86V19.695C124.166 19.695 122.661 19.73 122.276 19.73C121.436 19.73 120.876 19.45 120.876 18.225V9.475H124.446Z" fill="black"/>
</svg>
