<svg width="183" height="123" viewBox="0 0 183 123" fill="none" xmlns="http://www.w3.org/2000/svg">
<path d="M27.9958 59.6043L4.24805 44.0253" stroke="black" stroke-width="4"/>
<path d="M44.7494 44.0975L27.5728 21.4785" stroke="black" stroke-width="4"/>
<path d="M67.2828 34.5083L56.9727 8.04398" stroke="black" stroke-width="4"/>
<path d="M93.9934 30.5783L93.3408 2.18405" stroke="black" stroke-width="4"/>
<path d="M121.451 35.6518L131.003 8.90466" stroke="black" stroke-width="4"/>
<path d="M143.926 47.8672L160.888 25.0869" stroke="black" stroke-width="4"/>
<path d="M158.706 65.5918L180.352 47.2044" stroke="black" stroke-width="4"/>
<path d="M28.1386 60.1374C49.0921 36.7644 104.772 5.00821 159.862 64.9671C138.331 85.607 81.8413 113.537 28.1386 60.1374Z" stroke="black" stroke-width="4"/>
<path d="M118.094 57.6709C120.268 72.2746 111.153 85.4335 98.1345 87.3721C85.116 89.3107 72.5622 79.3787 70.3874 64.775C68.2127 50.1712 77.3281 37.0124 90.3465 35.0737C103.365 33.1351 115.919 43.0671 118.094 57.6709Z" stroke="black" stroke-width="4"/>
<ellipse cx="94.7036" cy="61.9213" rx="7.64204" ry="8.11967" fill="black"/>
</svg>
