<svg width="157" height="31" viewBox="0 0 157 31" fill="none" xmlns="http://www.w3.org/2000/svg">
<path d="M4.91424 4.90364L4.91424 0.668634H0.749243V4.90364H4.91424ZM4.91424 25.1336L4.91424 7.63364H0.749243L0.749243 25.1336H4.91424ZM9.42924 7.63364L9.42924 25.1336H13.6642V17.5386C13.6642 14.5286 14.0492 13.0586 15.3092 12.0086C16.1842 11.2736 17.0592 11.2036 17.5142 11.2036C20.1042 11.2036 20.5942 13.3736 20.5942 15.2986V25.1336H24.7242V12.9536C24.7242 9.52364 22.7642 7.10863 19.0542 7.10863C18.3542 7.10863 15.2392 7.31864 13.6642 9.69864V7.63364H9.42924ZM43.4676 10.3636C40.8426 7.31864 37.3076 7.10863 35.9426 7.10863C31.7426 7.10863 28.4176 9.34864 28.4176 12.8136C28.4176 16.9436 33.1426 17.8186 34.5076 18.0636L36.6776 18.4486C38.2876 18.7286 39.2676 19.1136 39.2676 20.1286C39.2676 20.8986 38.3576 22.1936 35.8376 22.1936C33.2126 22.1936 31.6376 21.0736 30.7976 19.9536L27.6476 22.5086C28.6276 23.5236 31.2176 25.6586 36.0476 25.6586C40.8776 25.6586 43.9226 22.8936 43.9226 19.6736C43.9226 16.8386 41.8926 15.2636 39.2326 14.7736L36.3976 14.2486C33.8776 13.7936 32.8276 13.4436 32.8276 12.2886C32.8276 10.7136 34.9276 10.4686 35.7326 10.4686C37.7626 10.4686 39.5476 11.2736 40.4926 13.1286L43.4676 10.3636ZM45.2695 10.6086L47.8245 10.6086V21.0386C47.8245 23.9086 49.0145 25.2736 52.7595 25.2736C54.1945 25.2736 55.2095 25.0636 55.7695 24.9936V21.4586C55.2445 21.5986 54.6145 21.6686 54.0195 21.6686C53.8445 21.6686 52.9345 21.6686 52.4445 21.1436C52.0595 20.7236 52.0245 19.9536 52.0245 19.2886V10.6086H55.7695V7.63364H52.0245V1.40364H47.8245V7.63364L45.2695 7.63364V10.6086ZM74.3531 25.1336C73.6532 24.0136 73.5831 23.6286 73.5831 22.2986V12.0786C73.5831 8.99864 71.3782 7.10863 66.2331 7.10863C58.8831 7.10863 58.6381 11.5886 58.5681 12.7436L62.8381 12.9886C62.8381 12.0786 63.1881 10.3636 66.3731 10.3636C68.9981 10.3636 69.3831 11.6586 69.3831 12.9886C68.2631 13.3736 66.6181 13.7936 63.9931 14.2836C60.6681 14.8786 57.7631 16.3836 57.7631 20.1986C57.7631 23.1386 60.1431 25.5536 64.1331 25.5536C66.2682 25.5536 68.1232 24.6786 69.2782 23.7686L69.3831 25.1336H74.3531ZM69.3831 18.7636C69.3831 20.9686 67.0032 21.9486 65.0781 21.9486C62.9781 21.9486 62.2081 20.9686 62.2081 19.8136C62.2081 18.0636 64.1331 17.6786 66.0581 17.3986C67.6681 17.1536 68.6832 16.7686 69.3831 16.4186V18.7636ZM94.0229 7.63364H89.8579V9.48864C88.8779 8.05364 87.1629 7.10863 84.9229 7.10863C81.1779 7.10863 77.0129 9.66364 77.0129 15.7886C77.0129 21.7736 80.8979 24.1186 84.5729 24.1186C85.4479 24.1186 87.8979 24.0136 89.8579 22.2636V23.8036C89.8579 26.8136 88.1779 27.6886 85.6929 27.6886C84.7129 27.6886 82.5779 27.3386 82.1929 25.5186H77.5729C78.0629 27.8636 79.0779 30.9786 85.5879 30.9786C90.5579 30.9786 94.0229 29.3336 94.0229 24.2586V7.63364ZM89.9629 15.8236C89.9629 18.5186 88.3879 20.3036 85.6579 20.3036C82.8579 20.3036 81.3179 18.4136 81.3179 15.6836C81.3179 12.2886 83.4879 10.8536 85.6229 10.8536C88.5279 10.8536 89.9629 13.0936 89.9629 15.8236ZM98.4681 7.63364V25.1336H102.528V17.6436C102.528 16.6286 102.528 15.7536 102.843 14.7736C103.858 11.5536 107.218 11.5536 108.093 11.5536V7.24864H107.743C106.903 7.24864 103.858 7.35364 102.528 10.1186V7.63364H98.4681ZM126.101 25.1336C125.401 24.0136 125.331 23.6286 125.331 22.2986V12.0786C125.331 8.99864 123.126 7.10863 117.981 7.10863C110.631 7.10863 110.386 11.5886 110.316 12.7436L114.586 12.9886C114.586 12.0786 114.936 10.3636 118.121 10.3636C120.746 10.3636 121.131 11.6586 121.131 12.9886C120.011 13.3736 118.366 13.7936 115.741 14.2836C112.416 14.8786 109.511 16.3836 109.511 20.1986C109.511 23.1386 111.891 25.5536 115.881 25.5536C118.016 25.5536 119.871 24.6786 121.026 23.7686L121.131 25.1336H126.101ZM121.131 18.7636C121.131 20.9686 118.751 21.9486 116.826 21.9486C114.726 21.9486 113.956 20.9686 113.956 19.8136C113.956 18.0636 115.881 17.6786 117.806 17.3986C119.416 17.1536 120.431 16.7686 121.131 16.4186V18.7636ZM129.776 7.63364V25.1336H133.976V17.7836C133.976 15.8236 134.011 13.3736 135.726 11.9036C136.601 11.1686 137.511 11.0636 137.931 11.0636C140.206 11.0636 140.801 13.0236 140.801 14.3886V25.1336H144.966V16.9086C144.966 15.5086 145.001 14.0736 145.806 12.8136C146.751 11.2736 148.256 11.0286 148.921 11.0286C151.721 11.0286 151.861 13.7586 151.861 14.4236V25.1336H156.026V13.1636C156.026 8.96364 153.541 7.10863 150.006 7.10863C147.276 7.10863 145.491 8.33364 144.371 9.76864C143.391 8.01864 141.501 7.10863 139.506 7.10863C136.811 7.10863 134.746 8.61364 134.011 9.59364V7.63364H129.776Z" fill="black"/>
</svg>
