<svg width="160" height="26" viewBox="0 0 160 26" fill="none" xmlns="http://www.w3.org/2000/svg">
<path d="M16.0642 10.3636C13.4392 7.31864 9.90424 7.10863 8.53924 7.10863C4.33924 7.10863 1.01424 9.34864 1.01424 12.8136C1.01424 16.9436 5.73924 17.8186 7.10424 18.0636L9.27424 18.4486C10.8842 18.7286 11.8642 19.1136 11.8642 20.1286C11.8642 20.8986 10.9542 22.1936 8.43424 22.1936C5.80924 22.1936 4.23424 21.0736 3.39424 19.9536L0.244243 22.5086C1.22424 23.5236 3.81424 25.6586 8.64424 25.6586C13.4742 25.6586 16.5192 22.8936 16.5192 19.6736C16.5192 16.8386 14.4892 15.2636 11.8292 14.7736L8.99424 14.2486C6.47424 13.7936 5.42424 13.4436 5.42424 12.2886C5.42424 10.7136 7.52424 10.4686 8.32924 10.4686C10.3592 10.4686 12.1442 11.2736 13.0892 13.1286L16.0642 10.3636ZM35.9262 25.1336V13.3036C35.9262 9.27864 33.4762 7.10863 29.6612 7.10863C27.0712 7.10863 25.1812 8.33364 24.1312 9.41864V0.423635L19.9312 0.423635V25.1336H24.1312V15.4386C24.1312 12.8136 26.2312 11.0986 28.5062 11.0986C30.5362 11.0986 31.7962 12.3236 31.7962 14.8786V25.1336H35.9262ZM57.3465 16.3136C57.3115 9.66364 52.1315 7.10863 48.3165 7.10863C42.1215 7.10863 39.3565 12.1136 39.3565 16.3136C39.3565 20.5836 42.0865 25.6586 48.4565 25.6586C54.4065 25.6586 57.3465 21.0036 57.3465 16.3136ZM43.7315 16.2086C43.7315 12.6736 45.7965 10.8886 48.2465 10.8886C51.4665 10.8886 52.9715 13.7236 52.9715 16.5236C52.9715 19.1836 51.5365 21.8086 48.4565 21.8086C45.4465 21.8086 43.7315 19.2886 43.7315 16.2086ZM84.2617 7.63364H79.8867L76.7717 19.6036L73.5517 7.63364H69.8067L66.5517 19.6036L63.5067 7.63364H59.1317L64.2067 25.1336H68.3717L71.6967 13.9686L74.8467 25.1336H79.0117L84.2617 7.63364ZM98.6117 18.3086C98.2967 19.1486 97.3517 21.7386 94.3767 21.7386C91.5417 21.7386 89.9667 19.3236 89.9667 16.2786C89.9667 13.3736 91.4367 10.8536 94.2717 10.8536C96.5467 10.8536 97.7717 12.3236 98.2617 13.8286L102.007 12.0786C101.342 10.4336 99.0317 7.10863 94.4817 7.10863C88.7067 7.10863 85.6267 11.8336 85.6267 16.3836C85.6267 21.5986 89.1267 25.6586 94.2717 25.6586C97.7717 25.6586 100.957 23.6636 102.182 20.1986L98.6117 18.3086ZM121.12 25.1336C120.42 24.0136 120.35 23.6286 120.35 22.2986V12.0786C120.35 8.99864 118.145 7.10863 113 7.10863C105.65 7.10863 105.405 11.5886 105.335 12.7436L109.605 12.9886C109.605 12.0786 109.955 10.3636 113.14 10.3636C115.765 10.3636 116.15 11.6586 116.15 12.9886C115.03 13.3736 113.385 13.7936 110.76 14.2836C107.435 14.8786 104.53 16.3836 104.53 20.1986C104.53 23.1386 106.91 25.5536 110.9 25.5536C113.035 25.5536 114.89 24.6786 116.045 23.7686L116.15 25.1336H121.12ZM116.15 18.7636C116.15 20.9686 113.77 21.9486 111.845 21.9486C109.745 21.9486 108.975 20.9686 108.975 19.8136C108.975 18.0636 110.9 17.6786 112.825 17.3986C114.435 17.1536 115.45 16.7686 116.15 16.4186V18.7636ZM139.179 10.3636C136.554 7.31864 133.019 7.10863 131.654 7.10863C127.454 7.10863 124.129 9.34864 124.129 12.8136C124.129 16.9436 128.854 17.8186 130.219 18.0636L132.389 18.4486C133.999 18.7286 134.979 19.1136 134.979 20.1286C134.979 20.8986 134.069 22.1936 131.549 22.1936C128.924 22.1936 127.349 21.0736 126.509 19.9536L123.359 22.5086C124.339 23.5236 126.929 25.6586 131.759 25.6586C136.589 25.6586 139.634 22.8936 139.634 19.6736C139.634 16.8386 137.604 15.2636 134.944 14.7736L132.109 14.2486C129.589 13.7936 128.539 13.4436 128.539 12.2886C128.539 10.7136 130.639 10.4686 131.444 10.4686C133.474 10.4686 135.259 11.2736 136.204 13.1286L139.179 10.3636ZM159.426 17.2236C159.426 12.4636 157.501 7.10863 150.816 7.10863C146.266 7.10863 142.031 10.0136 142.031 16.2786C142.031 22.0886 145.811 25.6586 151.026 25.6586C155.611 25.6586 158.166 23.1036 159.566 21.2136L155.996 19.1486C155.646 19.7436 154.386 21.5636 151.411 21.5636C147.351 21.5636 146.546 18.0986 146.476 17.2236H159.426ZM146.616 14.1436C146.756 13.4436 147.421 10.4686 150.886 10.4686C154.176 10.4686 154.736 13.2686 154.806 14.1436H146.616Z" fill="black"/>
</svg>
