<svg width="168" height="26" viewBox="0 0 168 26" fill="none" xmlns="http://www.w3.org/2000/svg">
<path d="M18.08 8.865C15.875 7.185 13.075 6.135 9.96 6.135C4.815 6.135 2.225 9.145 2.225 12.26C2.225 15.06 4.01 16.95 8.35 17.685L9.995 17.965C11.955 18.28 12.9 18.56 12.9 19.575C12.9 20.73 11.43 21.36 9.645 21.36C7.685 21.36 5.655 20.24 4.325 18.84L0.93 21.92C2.26 23.355 5.235 25.455 9.785 25.455C13.6 25.455 18.43 23.635 18.43 19.085C18.43 15.69 15.805 14.08 11.85 13.345L10.555 13.1C8.42 12.68 7.58 12.4 7.58 11.525C7.58 10.51 8.945 10.125 10.1 10.125C11.815 10.125 13.565 10.965 14.755 11.945L18.08 8.865ZM38.047 25V12.505C38.047 8.62 36.017 6.24 32.237 6.24C31.187 6.24 29.017 6.485 27.022 8.69V0.289999L21.632 0.289999V25H27.022V15.375C27.022 12.505 27.687 10.825 29.927 10.825C32.587 10.825 32.692 13.24 32.692 15.13V25L38.047 25ZM61.13 15.865C61.13 11.49 58.785 6.17 51.12 6.17C44.295 6.17 41.495 11.14 41.495 15.76C41.495 22.97 46.535 25.56 51.295 25.56C57.42 25.56 61.13 21.78 61.13 15.865ZM55.67 16.04C55.67 18.77 54.34 21.255 51.365 21.255C48.215 21.255 46.92 18.84 46.92 15.795C46.92 11.98 49.055 10.44 51.085 10.44C54.025 10.44 55.67 12.155 55.67 16.04ZM89.9 6.73H84.335L81.5 19.61L78.98 6.73H73.24L70.475 19.505L67.92 6.73H62.25L67.255 25H73.17L75.9 12.82L78.595 25H84.44L89.9 6.73ZM104.25 18.595C103.865 19.75 102.815 21.325 100.715 21.325C97.7397 21.325 96.6547 18.14 96.6547 15.83C96.6547 13.625 97.6697 10.335 100.54 10.335C102.64 10.335 103.62 11.875 104.11 12.89L108.1 10.615C105.545 6.555 101.94 6.205 100.295 6.205C96.1647 6.205 91.1247 8.69 91.1247 16.005C91.1247 22.865 95.9197 25.595 100.19 25.595C102.99 25.595 106.245 24.3 108.31 20.695L104.25 18.595ZM127.247 25C126.792 24.335 126.722 23.74 126.722 22.165V11.49C126.722 7.08 121.997 6.24 118.847 6.24C114.857 6.24 111.147 7.885 111.147 11.91H116.537C116.677 11.105 117.097 9.775 119.372 9.775C121.332 9.775 121.437 11.35 121.437 11.98V12.995C117.412 13.765 115.487 14.15 114.227 14.675C111.952 15.62 110.377 17.65 110.377 19.925C110.377 22.55 112.197 25.49 116.362 25.49C119.162 25.49 120.527 24.3 121.962 23.355V25H127.247ZM121.437 16.25V17.055C121.437 19.645 119.827 21.535 117.727 21.535C116.187 21.535 115.662 20.31 115.662 19.68C115.662 18.875 116.117 18 117.972 17.405L121.437 16.25ZM146.322 8.865C144.117 7.185 141.317 6.135 138.202 6.135C133.057 6.135 130.467 9.145 130.467 12.26C130.467 15.06 132.252 16.95 136.592 17.685L138.237 17.965C140.197 18.28 141.142 18.56 141.142 19.575C141.142 20.73 139.672 21.36 137.887 21.36C135.927 21.36 133.897 20.24 132.567 18.84L129.172 21.92C130.502 23.355 133.477 25.455 138.027 25.455C141.842 25.455 146.672 23.635 146.672 19.085C146.672 15.69 144.047 14.08 140.092 13.345L138.797 13.1C136.662 12.68 135.822 12.4 135.822 11.525C135.822 10.51 137.187 10.125 138.342 10.125C140.057 10.125 141.807 10.965 142.997 11.945L146.322 8.865ZM167.164 16.985V16.74C167.164 11.665 164.854 6.17 157.994 6.17C150.854 6.17 148.614 11.63 148.614 16.215C148.614 22.13 152.289 25.665 157.854 25.665C161.634 25.665 164.889 23.845 166.954 20.38L162.894 18.28C162.334 19.785 160.829 21.535 158.274 21.535C155.789 21.535 154.109 19.645 154.109 17.195V16.985L167.164 16.985ZM154.109 13.625C154.354 12.155 155.404 10.02 157.959 10.02C160.164 10.02 161.529 11.595 161.599 13.625L154.109 13.625Z" fill="black"/>
</svg>
