<svg width="118" height="25" viewBox="0 0 118 25" fill="none" xmlns="http://www.w3.org/2000/svg">
<path d="M13.2992 17.3086C12.9842 18.1486 12.0392 20.7386 9.06424 20.7386C6.22924 20.7386 4.65424 18.3236 4.65424 15.2786C4.65424 12.3736 6.12424 9.85364 8.95924 9.85364C11.2342 9.85364 12.4592 11.3236 12.9492 12.8286L16.6942 11.0786C16.0292 9.43364 13.7192 6.10863 9.16924 6.10863C3.39424 6.10863 0.314243 10.8336 0.314243 15.3836C0.314243 20.5986 3.81424 24.6586 8.95924 24.6586C12.4592 24.6586 15.6442 22.6636 16.8692 19.1986L13.2992 17.3086ZM36.7703 15.3136C36.7353 8.66364 31.5553 6.10863 27.7403 6.10863C21.5453 6.10863 18.7803 11.1136 18.7803 15.3136C18.7803 19.5836 21.5103 24.6586 27.8803 24.6586C33.8303 24.6586 36.7703 20.0036 36.7703 15.3136ZM23.1553 15.2086C23.1553 11.6736 25.2203 9.88864 27.6703 9.88864C30.8903 9.88864 32.3953 12.7236 32.3953 15.5236C32.3953 18.1836 30.9603 20.8086 27.8803 20.8086C24.8703 20.8086 23.1553 18.2886 23.1553 15.2086ZM40.1656 6.63364V24.1336H44.4006V16.5386C44.4006 13.5286 44.7856 12.0586 46.0456 11.0086C46.9206 10.2736 47.7956 10.2036 48.2506 10.2036C50.8406 10.2036 51.3306 12.3736 51.3306 14.2986V24.1336H55.4606V11.9536C55.4606 8.52364 53.5006 6.10863 49.7906 6.10863C49.0906 6.10863 45.9756 6.31864 44.4006 8.69864V6.63364H40.1656ZM57.7539 9.60864H60.3089V20.0386C60.3089 22.9086 61.4989 24.2736 65.2439 24.2736C66.6789 24.2736 67.6939 24.0636 68.2539 23.9936V20.4586C67.7289 20.5986 67.0989 20.6686 66.5039 20.6686C66.3289 20.6686 65.4189 20.6686 64.9289 20.1436C64.5439 19.7236 64.5089 18.9536 64.5089 18.2886V9.60864H68.2539V6.63364H64.5089V0.403635H60.3089V6.63364H57.7539V9.60864ZM86.8375 24.1336C86.1375 23.0136 86.0675 22.6286 86.0675 21.2986V11.0786C86.0675 7.99864 83.8625 6.10863 78.7175 6.10863C71.3675 6.10863 71.1225 10.5886 71.0525 11.7436L75.3225 11.9886C75.3225 11.0786 75.6725 9.36364 78.8575 9.36364C81.4825 9.36364 81.8675 10.6586 81.8675 11.9886C80.7475 12.3736 79.1025 12.7936 76.4775 13.2836C73.1525 13.8786 70.2475 15.3836 70.2475 19.1986C70.2475 22.1386 72.6275 24.5536 76.6175 24.5536C78.7525 24.5536 80.6075 23.6786 81.7625 22.7686L81.8675 24.1336H86.8375ZM81.8675 17.7636C81.8675 19.9686 79.4875 20.9486 77.5625 20.9486C75.4625 20.9486 74.6925 19.9686 74.6925 18.8136C74.6925 17.0636 76.6175 16.6786 78.5425 16.3986C80.1525 16.1536 81.1675 15.7686 81.8675 15.4186V17.7636ZM102.132 17.3086C101.817 18.1486 100.872 20.7386 97.8973 20.7386C95.0623 20.7386 93.4873 18.3236 93.4873 15.2786C93.4873 12.3736 94.9573 9.85364 97.7923 9.85364C100.067 9.85364 101.292 11.3236 101.782 12.8286L105.527 11.0786C104.862 9.43364 102.552 6.10863 98.0023 6.10863C92.2273 6.10863 89.1473 10.8336 89.1473 15.3836C89.1473 20.5986 92.6473 24.6586 97.7923 24.6586C101.292 24.6586 104.477 22.6636 105.702 19.1986L102.132 17.3086ZM106.528 9.60864H109.083V20.0386C109.083 22.9086 110.273 24.2736 114.018 24.2736C115.453 24.2736 116.468 24.0636 117.028 23.9936V20.4586C116.503 20.5986 115.873 20.6686 115.278 20.6686C115.103 20.6686 114.193 20.6686 113.703 20.1436C113.318 19.7236 113.283 18.9536 113.283 18.2886V9.60864H117.028V6.63364H113.283V0.403635H109.083V6.63364H106.528V9.60864Z" fill="black"/>
</svg>
