<svg width="178" height="32" viewBox="0 0 178 32" fill="none" xmlns="http://www.w3.org/2000/svg">
<path d="M5.77 4.455L5.77 0.289999H0.415V4.455H5.77ZM5.77 25L5.77 6.73H0.415L0.415 25H5.77ZM26.9447 25V11.875C26.9447 8.165 24.9847 6.275 21.2747 6.275C18.7197 6.275 17.0047 7.29 16.1297 8.34V6.73L10.6697 6.73L10.6697 25H16.0597V14.78C16.0597 12.33 16.4097 10.58 18.8947 10.58C21.0647 10.58 21.5547 12.015 21.5547 13.73V25H26.9447ZM46.4228 8.865C44.2178 7.185 41.4178 6.135 38.3028 6.135C33.1578 6.135 30.5678 9.145 30.5678 12.26C30.5678 15.06 32.3528 16.95 36.6928 17.685L38.3378 17.965C40.2978 18.28 41.2428 18.56 41.2428 19.575C41.2428 20.73 39.7728 21.36 37.9878 21.36C36.0278 21.36 33.9978 20.24 32.6678 18.84L29.2728 21.92C30.6028 23.355 33.5778 25.455 38.1278 25.455C41.9428 25.455 46.7728 23.635 46.7728 19.085C46.7728 15.69 44.1478 14.08 40.1928 13.345L38.8978 13.1C36.7628 12.68 35.9228 12.4 35.9228 11.525C35.9228 10.51 37.2878 10.125 38.4428 10.125C40.1578 10.125 41.9078 10.965 43.0978 11.945L46.4228 8.865ZM59.5297 10.475V7.185H55.9597V1.445L50.6397 1.445V7.15H47.9797V10.44H50.6397V19.96C50.6397 24.23 52.9147 25.14 55.8547 25.14C57.8147 25.14 58.8997 24.93 59.2497 24.86V20.695C59.2497 20.695 57.7447 20.73 57.3597 20.73C56.5197 20.73 55.9597 20.45 55.9597 19.225V10.475H59.5297ZM62.3128 6.73V25H67.6678V14.71C67.6678 12.75 68.1928 12.015 71.0278 11.56L72.8128 11.28V6.52C72.1478 6.555 71.1328 6.66 69.6628 7.255C68.4728 7.745 67.9828 8.235 67.5278 8.62V6.73H62.3128ZM91.5028 25C91.0478 24.335 90.9778 23.74 90.9778 22.165V11.49C90.9778 7.08 86.2528 6.24 83.1028 6.24C79.1128 6.24 75.4028 7.885 75.4028 11.91H80.7928C80.9328 11.105 81.3528 9.775 83.6278 9.775C85.5878 9.775 85.6928 11.35 85.6928 11.98V12.995C81.6678 13.765 79.7428 14.15 78.4828 14.675C76.2078 15.62 74.6328 17.65 74.6328 19.925C74.6328 22.55 76.4528 25.49 80.6178 25.49C83.4178 25.49 84.7828 24.3 86.2178 23.355V25H91.5028ZM85.6928 16.25V17.055C85.6928 19.645 84.0828 21.535 81.9828 21.535C80.4428 21.535 79.9178 20.31 79.9178 19.68C79.9178 18.875 80.3728 18 82.2278 17.405L85.6928 16.25ZM107.218 6.73V8.41C106.238 7.465 104.803 6.415 102.143 6.415C97.768 6.415 94.583 9.88 94.583 15.34C94.583 22.445 99.168 24.16 102.143 24.16C104.593 24.16 105.713 23.39 106.938 22.585V25.07C106.938 27.135 105.748 27.975 103.753 27.975C100.953 27.975 100.428 26.225 100.428 25H94.863V25.56C94.863 29.55 98.293 31.545 103.228 31.545C109.178 31.545 112.293 29.305 112.293 24.545V6.73L107.218 6.73ZM106.938 15.305C106.938 17.16 106.763 20.065 103.578 20.065C100.638 20.065 100.148 17.72 100.148 15.13C100.148 13.975 100.323 10.44 103.438 10.44C106.588 10.44 106.938 12.995 106.938 15.305ZM116.966 6.73V25H122.321V14.71C122.321 12.75 122.846 12.015 125.681 11.56L127.466 11.28V6.52C126.801 6.555 125.786 6.66 124.316 7.255C123.126 7.745 122.636 8.235 122.181 8.62V6.73H116.966ZM146.156 25C145.701 24.335 145.631 23.74 145.631 22.165V11.49C145.631 7.08 140.906 6.24 137.756 6.24C133.766 6.24 130.056 7.885 130.056 11.91H135.446C135.586 11.105 136.006 9.775 138.281 9.775C140.241 9.775 140.346 11.35 140.346 11.98V12.995C136.321 13.765 134.396 14.15 133.136 14.675C130.861 15.62 129.286 17.65 129.286 19.925C129.286 22.55 131.106 25.49 135.271 25.49C138.071 25.49 139.436 24.3 140.871 23.355V25H146.156ZM140.346 16.25V17.055C140.346 19.645 138.736 21.535 136.636 21.535C135.096 21.535 134.571 20.31 134.571 19.68C134.571 18.875 135.026 18 136.881 17.405L140.346 16.25ZM150.496 6.73V25H155.816V14.43C155.816 12.89 156.096 10.65 158.511 10.65C160.191 10.65 161.136 11.525 161.136 14.08V25H166.491V14.045C166.491 11.84 167.331 10.615 169.256 10.615C171.181 10.615 171.776 12.015 171.776 14.465V25H177.131V11.595C177.131 7.99 174.891 6.24 171.531 6.24C168.801 6.24 167.121 7.535 166.106 8.375C164.986 7.045 163.446 6.24 160.996 6.24C157.846 6.24 156.306 8.06 155.851 8.62V6.73H150.496Z" fill="black"/>
</svg>
