<svg width="146" height="46" viewBox="0 0 146 46" fill="none" xmlns="http://www.w3.org/2000/svg">
<path d="M10.6579 4.40702C10.5855 3.38512 10.513 2.38258 10.4454 1.38489C10.0543 1.28319 1.30951 1.63189 0.116825 1.78688C0.107167 1.93217 0.0926812 2.08231 0.0926812 2.23729C0.0926812 3.13327 0.0975099 4.02925 0.0926812 4.92524C0.063709 8.96927 0.0250794 13.0133 0.000935875 17.0622C-0.00389283 18.0599 0.0105933 19.0576 0.0299081 20.0552C0.0540516 21.3241 0.0926812 22.5931 0.121653 23.862C0.145797 25.1163 0.16994 26.3707 0.184427 27.6299C0.203741 29.4945 0.198913 31.3592 0.223056 33.2238C0.232714 34.2166 0.285829 35.2143 0.314802 36.2071C0.348602 37.3889 0.382403 38.5706 0.406547 39.7572C0.43069 40.968 0.454834 42.1739 0.464491 43.3847C0.46932 43.9562 0.416204 44.8958 0.39689 45.4673C0.392061 45.6222 0.39689 45.7821 0.39689 46C2.00002 45.7094 3.5452 45.3316 5.1097 45.0265C6.68386 44.7214 8.24836 44.3872 9.84666 44.0627C9.85632 43.7721 9.86598 43.5155 9.88046 43.2588C9.91909 42.3676 9.94806 41.4717 9.99635 40.5805C10.035 39.8298 10.0978 39.084 10.1412 38.3381C10.1605 38.0088 10.1557 37.6746 10.1798 37.3404C10.2571 36.1345 10.344 34.9237 10.4213 33.7178C10.4696 32.9671 10.5082 32.2212 10.5468 31.4705C10.5999 30.5068 10.6482 29.543 10.7062 28.5792C10.7738 27.4846 10.8365 26.3901 10.9235 25.3004C10.9959 24.3947 11.1021 23.4939 11.1794 22.5882C11.3146 21.0384 11.4353 19.4837 11.5705 17.9339C11.6526 17.0428 11.7588 16.1565 11.8506 15.2702C11.8651 15.1346 11.8506 14.999 11.8506 14.8198C11.9568 14.844 12.092 14.8537 12.2079 14.9021C13.106 15.2702 13.9559 15.7012 14.6609 16.3551C14.9796 16.6505 15.3321 16.9072 15.6749 17.1784C15.9019 17.3576 15.9984 17.5949 16.0226 17.8613C16.1433 19.1108 16.264 20.3555 16.3799 21.605C16.5006 22.8982 16.6213 24.1864 16.7324 25.4796C16.7903 26.1528 16.8097 26.8308 16.8628 27.5088C16.969 28.9037 17.0945 30.2937 17.1959 31.6885C17.2539 32.4489 17.2732 33.2141 17.3263 33.9793C17.4084 35.161 17.5098 36.3379 17.5871 37.5196C17.6692 38.7546 17.7416 39.9945 17.7899 41.2343C17.8333 42.387 17.8333 43.5445 17.8575 44.6972C17.8575 44.7941 17.8768 44.8909 17.8864 45.0072C18.3403 45.0362 18.7653 45.075 19.195 45.0846C19.9386 45.104 20.6823 45.0943 21.4259 45.1185C22.3965 45.1573 23.367 45.2203 24.3424 45.2687C25.144 45.3074 25.9504 45.3413 26.7519 45.3752C27.37 45.4043 27.9881 45.4479 28.6062 45.4576C28.8621 45.4624 29.118 45.3994 29.3884 45.3655C29.4029 45.2299 29.4222 45.1331 29.427 45.0314C29.4512 44.4405 29.4995 43.8496 29.485 43.2636C29.4657 42.5323 29.3884 41.7961 29.345 41.0648C29.3256 40.7646 29.3208 40.4594 29.3112 40.1543C29.2774 39.3019 29.2532 38.4544 29.2146 37.602C29.1615 36.3767 29.0746 35.1562 29.0456 33.9309C29.0166 32.7055 29.0311 31.4851 29.0311 30.2598C29.0311 30.1871 29.0311 30.1145 29.0311 30.0418C29.0408 27.4556 29.0552 24.8693 29.0601 22.2782C29.0649 21.0626 29.0552 19.8518 29.0649 18.6362C29.0697 18.147 29.0842 17.6579 29.1373 17.1736C29.1518 17.0428 29.316 16.9266 29.4367 16.7667C29.5526 16.8442 29.654 16.9023 29.7409 16.9702C30.8081 17.8129 31.8414 18.6846 32.8361 19.6048C33.2997 20.0359 33.995 20.8108 34.3765 21.3145C35.1829 22.3896 35.9506 23.489 36.7522 24.5642C36.9791 24.8693 37.1143 25.2374 37.1337 25.62C37.1916 26.7678 37.2737 27.9108 37.3413 29.0587C37.4089 30.2404 37.4668 31.4173 37.5296 32.599C37.5924 33.8243 37.6407 35.0448 37.7179 36.2701C37.7855 37.3647 37.8966 38.4544 37.9739 39.5441C38.0511 40.6677 38.1139 41.7865 38.1815 42.9101C38.2201 43.5542 38.2443 44.2032 38.2781 44.8764C38.7658 45.0217 39.2728 45.0072 39.775 44.9878C40.76 44.9442 41.7499 44.8667 42.735 44.8231C44.2415 44.7553 45.7481 44.7262 47.2498 44.6342C47.7133 44.6052 48.1769 44.5422 48.6356 44.4696C49.9249 44.2613 50.0118 44.4114 49.9587 43.8496C49.8718 42.9052 49.7704 41.956 49.7028 41.0116C49.6207 39.9025 49.5724 38.7934 49.4951 37.6892C49.4227 36.6672 49.331 35.6502 49.2585 34.6331C49.2054 33.9018 49.1764 33.1656 49.1282 32.4295C49.0509 31.2817 48.9591 30.129 48.8867 28.9812C48.8336 28.1917 48.7998 27.3975 48.7563 26.6032C48.6984 25.5958 48.6405 24.5884 48.5825 23.5811C48.5535 23.0774 48.5149 22.5737 48.5149 22.07C48.5149 21.5227 48.2928 21.0287 48.1238 20.5202C47.6313 19.0721 47.0228 17.6724 46.2309 16.3405C45.4149 14.9602 44.3429 13.7785 43.0874 12.7276C42.6142 12.3304 42.1603 11.9187 41.6775 11.5361C41.5229 11.4102 41.3105 11.323 41.1077 11.2843C39.0796 10.8823 37.0516 10.5045 35.0235 10.1074C33.4783 9.80229 31.938 9.49717 30.4024 9.16784C27.766 8.60119 25.1343 8.02485 22.5027 7.43883C20.4553 6.98358 18.4176 6.51379 16.3702 6.04885C14.4774 5.61781 12.599 5.12865 10.7786 4.47482C10.7303 4.46998 10.7062 4.44092 10.6579 4.40702Z" fill="black"/>
<path d="M134.152 41.5642C134.211 42.591 134.27 43.5985 134.328 44.6012C134.743 44.7073 144.157 44.5289 145.446 44.3891C145.456 44.2445 145.48 44.095 145.48 43.9408C145.5 43.0441 145.504 42.1427 145.529 41.2461C145.631 37.1871 145.744 33.1234 145.846 29.0644C145.871 28.0617 145.871 27.0639 145.866 26.0612C145.861 24.7837 145.841 23.5111 145.836 22.2336C145.832 20.9707 145.827 19.7125 145.841 18.4495C145.856 16.5791 145.895 14.7087 145.905 12.8335C145.91 11.8356 145.875 10.8329 145.861 9.83508C145.846 8.64921 145.832 7.45853 145.827 6.27266C145.822 5.05787 145.817 3.84308 145.832 2.62829C145.836 2.04982 145.91 1.11463 145.944 0.536157C145.954 0.377077 145.949 0.222818 145.954 0.00107112C144.225 0.261383 142.555 -0.0471348 140.871 0.227639C139.172 0.502413 137.521 0.299948 135.793 0.598825C135.773 0.892881 135.72 2.31496 135.705 2.57527C135.646 3.4719 135.598 4.36853 135.529 5.26516C135.471 6.01717 135.393 6.76436 135.329 7.51638C135.3 7.849 135.3 8.18162 135.271 8.51424C135.163 9.72421 135.051 10.9342 134.943 12.1441C134.88 12.8962 134.826 13.6482 134.768 14.3954C134.694 15.3643 134.621 16.3284 134.543 17.2974C134.45 18.3916 134.362 19.4907 134.25 20.585C134.157 21.4913 134.025 22.3927 133.923 23.299C133.747 24.8512 133.596 26.4083 133.415 27.9605C133.313 28.8523 133.181 29.7393 133.064 30.6311C133.044 30.7661 133.059 30.9011 133.054 31.0794C132.942 31.0553 132.795 31.0409 132.668 30.9878C131.711 30.6022 130.803 30.1539 130.056 29.479C129.719 29.1753 129.343 28.9102 128.977 28.6354C128.733 28.4522 128.635 28.2112 128.616 27.9412C128.508 26.6879 128.401 25.4297 128.298 24.1763C128.191 22.8796 128.083 21.578 127.991 20.2813C127.942 19.6016 127.932 18.9219 127.888 18.2422C127.8 16.8394 127.688 15.4414 127.605 14.0386C127.556 13.2722 127.551 12.5057 127.507 11.7392C127.444 10.5533 127.356 9.36748 127.292 8.18162C127.229 6.9379 127.17 5.69419 127.141 4.45048C127.117 3.29354 127.136 2.13177 127.131 0.974831C127.131 0.878419 127.117 0.777187 127.107 0.661492C126.624 0.622928 126.16 0.574722 125.701 0.555439C124.9 0.521695 124.099 0.521695 123.303 0.47831C122.258 0.425283 121.214 0.338513 120.169 0.271024C119.305 0.217998 118.44 0.169792 117.581 0.116765C116.917 0.0782006 116.253 0.0251741 115.589 0.00107112C115.315 -0.00857006 115.037 0.049277 114.749 0.0782006C114.73 0.213177 114.71 0.31441 114.7 0.410821C114.666 1.00375 114.603 1.59669 114.608 2.1848C114.617 2.92235 114.681 3.6599 114.72 4.39263C114.734 4.69633 114.734 5.00003 114.744 5.30372C114.764 6.15697 114.778 7.01503 114.803 7.86828C114.837 9.09753 114.905 10.3268 114.92 11.5609C114.93 12.7901 114.891 14.0194 114.871 15.2486C114.871 15.3209 114.866 15.3932 114.866 15.4655C114.808 18.0638 114.749 20.6621 114.691 23.2556C114.666 24.4752 114.651 25.6948 114.622 26.9096C114.608 27.4013 114.583 27.893 114.52 28.3751C114.5 28.5052 114.324 28.6209 114.188 28.7752C114.061 28.6932 113.958 28.6354 113.86 28.5631C112.469 27.4977 111.126 26.389 109.867 25.208C109.383 24.7548 109.017 24.2053 108.621 23.6846C107.894 22.7302 107.186 21.7612 106.454 20.8068C106.214 20.4934 106.078 20.1753 106.068 19.7992C106.029 18.6278 105.956 17.4564 105.907 16.285C105.858 15.0992 105.814 13.9133 105.77 12.7274C105.726 11.4982 105.697 10.2689 105.633 9.03968C105.58 7.94059 105.482 6.84631 105.419 5.74722C105.355 4.6192 105.306 3.49118 105.257 2.36316C105.228 1.71238 105.213 1.0616 105.189 0.386719C104.667 0.227639 104.12 0.23728 103.578 0.246921C102.513 0.271024 101.454 0.328871 100.389 0.352974C98.7684 0.391539 97.1474 0.391539 95.5264 0.454207C95.0284 0.473489 94.5304 0.526516 94.0324 0.594004C92.6457 0.777187 92.5481 0.627748 92.5969 1.19176C92.675 2.14141 92.7629 3.09589 92.8215 4.05037C92.8898 5.16393 92.924 6.27748 92.9875 7.39104C93.0461 8.41783 93.1291 9.43979 93.1877 10.4666C93.2316 11.2041 93.2511 11.9417 93.2902 12.6792C93.3537 13.8362 93.4269 14.9883 93.4904 16.1452C93.5295 16.9406 93.5539 17.736 93.588 18.5314C93.632 19.5438 93.6759 20.5561 93.7199 21.5684C93.7394 22.0746 93.7736 22.5807 93.7687 23.0869C93.7589 23.6364 93.9884 24.1378 94.1642 24.6536C94.6671 26.1142 95.2969 27.5363 96.1221 28.8861C96.9765 30.284 98.1093 31.494 99.4374 32.5738C99.9403 32.9787 100.419 33.403 100.931 33.7982C101.097 33.9236 101.322 34.02 101.542 34.0634C103.714 34.5021 105.892 34.9214 108.065 35.3601C109.72 35.6927 111.375 36.0302 113.021 36.3917C115.848 37.0088 118.67 37.6403 121.492 38.2766C123.684 38.7731 125.872 39.2841 128.064 39.7854C130.095 40.253 132.102 40.7785 134.05 41.4678C134.079 41.4967 134.099 41.5257 134.152 41.5642Z" fill="black"/>
<path d="M101.582 37.9971C101.582 37.9971 99.9405 37.642 99.0621 37.5412C97.5803 37.3733 96.1034 37.1477 94.6216 36.9462C93.3184 36.7687 92.2952 36.0249 91.3492 35.1275C91.2526 35.0316 91.1609 34.9308 91.0547 34.8444C90.2246 34.139 89.5971 33.2945 89.182 32.258C88.7187 31.0919 88.1684 29.9547 87.6858 28.7982C87.6665 28.7166 87.6472 28.6351 87.623 28.5535C87.4734 26.9891 87.3382 25.42 87.2031 23.8509C87.1259 22.9487 87.0487 22.0466 86.9859 21.1445C86.9039 20.0072 86.8411 18.8699 86.7639 17.7327C86.6432 16.0244 86.5129 14.3209 86.4019 12.6126C86.2909 10.9283 86.1702 9.23916 86.0882 7.55006L85.9241 2.29081L75.2476 2.16605L75.2235 5.79858C75.32 6.23045 75.3007 6.3984 74.9339 6.54716C74.4319 6.7535 73.9154 6.93104 73.3893 7.05581C72.313 7.31493 71.227 7.52607 70.1459 7.766C69.3591 7.94354 68.5434 8.05871 67.7953 8.34183C66.7962 8.72092 65.8357 9.21037 64.8849 9.69983C63.8954 10.2085 62.9687 10.8227 62.0468 11.4561C60.985 12.1807 59.9569 12.9533 59.0109 13.8266C58.6248 14.1865 58.2821 14.6088 57.978 15.0455C57.1237 16.2739 56.3032 17.5263 55.4537 18.7596C54.6911 19.8584 54.1843 21.0773 54.0733 22.5312C54.0395 22.9967 53.8754 23.443 53.663 23.8605C53.2431 24.6714 53.2189 25.4776 53.3879 26.2885C53.5761 27.2051 53.5906 28.1264 53.5858 29.0477C53.5809 30.8856 53.7644 32.7043 54.4111 34.4461C55.3427 36.9558 56.3225 39.4511 57.5677 41.8216C57.8959 42.4454 58.2579 43.0548 58.6054 43.669C58.8178 44.0433 59.1267 44.2113 59.537 44.2593C60.7774 44.4032 62.0082 44.5951 63.2486 44.7343C65.1262 44.9407 67.0037 45.1566 68.8861 45.2957C69.919 45.3725 70.9567 45.3101 71.9896 45.2813C72.7812 45.2574 73.5679 45.1902 74.3595 45.1518C74.6925 45.1374 74.9725 45.0366 75.2186 44.7919C76.1743 43.861 77.1444 42.9588 78.1001 42.0279C79.1668 40.9914 80.0694 39.7966 80.9864 38.6209C81.1843 38.3714 81.3484 38.0883 81.5656 37.7668C81.9807 39.2207 82.2558 40.6363 82.8688 41.9463C83.1343 42.5126 83.448 43.0164 83.9355 43.3955C84.2878 43.669 84.6353 43.9521 84.9829 44.2257C85.7117 44.7919 86.5177 45.051 87.4251 45.0078C88.5352 44.955 89.6454 44.9646 90.7555 44.9071C92.5413 44.8111 94.3223 44.6719 96.1082 44.576C97.9133 44.48 99.7185 44.4176 101.524 44.3456C101.876 44.3312 102.228 44.3312 102.668 44.3216C102.363 42.2534 101.823 40.0029 101.582 37.9971ZM77.7623 27.5986C77.7623 27.5986 77.2265 28.0832 76.9031 28.3135C76.8597 28.3615 76.7969 28.3999 76.7438 28.4431C75.933 29.1245 75.0159 29.6859 74.0844 30.2234C73.7031 30.4441 73.3073 30.6601 72.9019 30.8088C72.0813 31.1159 71.256 31.4134 70.4258 31.6486C69.5956 31.8837 68.7558 32.0996 67.9353 32.2148C66.4197 32.4259 65.0393 32.3156 63.8327 31.7829C63.9919 30.972 64.1271 30.1322 64.3298 29.2877C64.4649 28.7406 64.7015 28.184 64.8897 27.6273C65.2469 26.5861 65.604 25.5448 66.2074 24.5131C66.3473 24.2731 66.7962 23.8797 66.7962 23.8797C66.8734 23.8461 66.941 23.7453 66.9941 23.6685C67.8677 22.4113 69.0502 21.3028 70.281 20.2471C71.7773 18.9659 73.4087 17.7854 75.0835 16.6626C75.3248 16.4994 75.5661 16.3315 75.8557 16.1347C76.1019 16.4514 76.3915 16.7106 76.5315 17.0369C76.8259 17.7423 77.0286 18.4908 77.2989 19.2106C77.5258 19.8057 77.5692 20.4535 77.5064 21.1349C77.4196 22.0466 77.4147 22.9343 77.5306 23.7981C77.6561 24.705 77.7526 25.6215 77.8733 26.5285C77.8974 26.706 77.9988 27.2435 77.9988 27.2435L77.7623 27.5986Z" fill="black"/>
</svg>
