<svg width="252" height="68" viewBox="0 0 252 68" fill="none" xmlns="http://www.w3.org/2000/svg">
<path fill-rule="evenodd" clip-rule="evenodd" d="M176.054 22V22.2718L205.021 32.0832L209.216 33.5039L205.021 34.9246L176.054 44.736L176.054 45.0078L175.252 45.0078L172.054 45.0078H170.576L19 45.0078H15V41.0078V35.1473L15 32.1473V26L15 22L19 22L170.576 22H175.252L176.054 22ZM176.054 26L176.054 25.4392L189.272 29.916V37.0917L176.054 41.5686L176.054 41.0078V26ZM199.837 33.513L199.864 33.5039L198.741 33.1236L199.837 33.513ZM19 26L172.054 26L172.054 32.1473H19V26ZM19 35.1473H172.054V41.0078L19 41.0078V35.1473Z" fill="black"/>
</svg>
