<svg width="262" height="132" viewBox="0 0 262 132" fill="none" xmlns="http://www.w3.org/2000/svg">
<path fill-rule="evenodd" clip-rule="evenodd" d="M182.455 67.3638L182.384 67.6263L207.825 84.6006L211.509 87.0585L207.089 87.3452L176.57 89.3251L176.5 89.5876L175.725 89.3799L172.636 88.5523L171.208 88.1698L24.797 48.939L20.9333 47.9037L21.9686 44.04L23.4854 38.3792L24.2619 35.4815L25.8529 29.5436L26.8882 25.6799L30.7519 26.7152L177.163 65.946L181.68 67.1562L182.455 67.3638ZM181.419 71.2275L181.564 70.6858L193.173 78.431L191.316 85.3622L177.39 86.2656L177.535 85.7239L181.419 71.2275ZM202.448 84.6401L202.476 84.6382L201.49 83.9802L202.448 84.6401ZM29.7166 30.5789L177.556 70.1923L175.965 76.1301L28.1256 36.5167L29.7166 30.5789ZM27.3491 39.4145L175.188 79.0279L173.671 84.6886L25.8323 45.0753L27.3491 39.4145Z" fill="black"/>
</svg>
