<svg width="202" height="141" viewBox="0 0 202 141" fill="none" xmlns="http://www.w3.org/2000/svg">
<path fill-rule="evenodd" clip-rule="evenodd" d="M171.621 33.6018C162.988 30.7316 151.951 32.4557 145.809 42.8018C142.768 47.9251 142.463 52.3907 142.319 55.6968L142.302 56.0859L142.302 56.0861C142.237 57.5844 142.192 58.6518 141.967 59.5008C141.757 60.2921 141.432 60.7362 140.78 61.0539C140.476 61.2016 139.672 61.4707 138.31 61.8456C136.997 62.2069 135.284 62.6359 133.259 63.1157C129.212 64.0747 123.966 65.2265 118.288 66.4295C107.139 68.7914 94.3611 71.3437 85.811 73.0091C78.255 71.3421 68.9806 69.2598 60.0665 67.2585L60.0664 67.2584L60.066 67.2583C45.7271 64.039 32.3207 61.0291 28.4987 60.2933C20.4642 58.7466 14.9163 60.5715 11.2465 63.6961C7.64032 66.7666 6.03962 70.9284 5.51843 73.7814L5.25141 75.243L6.71046 75.5239L41.5542 82.2315L7.87417 89.2549L6.47769 89.5461L6.69845 90.9554C7.44529 95.7233 11.9407 105.563 23.9951 107.002C27.0171 107.363 32.5591 106.829 39.3495 105.808C46.2134 104.776 54.5554 103.214 63.3003 101.422C80.5346 97.8899 99.3963 93.4533 111.727 90.3902C112.59 90.4699 113.838 90.6539 115.362 90.922C117.427 91.2854 119.87 91.7784 122.272 92.2869C124.998 92.8641 127.709 93.4701 129.708 93.9169L129.709 93.917L129.711 93.9175L129.713 93.9179C131.188 94.2476 132.275 94.4905 132.692 94.5708C133.934 94.8098 135.147 95.0096 136.264 95.1936L136.264 95.1937L136.264 95.1937L136.265 95.1938C136.84 95.2886 137.39 95.3792 137.906 95.4688C139.468 95.7406 140.747 96.0083 141.767 96.371C142.785 96.7328 143.404 97.1417 143.774 97.6046C144.119 98.036 144.37 98.668 144.339 99.7491C144.078 108.761 148.783 119.506 160.669 122.47C166.018 123.804 171.831 122.621 176.69 120.266C181.532 117.92 185.683 114.286 187.586 110.401C189.514 106.467 189.647 100.444 188.059 94.8048C186.462 89.1293 183.021 83.4824 177.384 80.5057C172.249 77.7944 166.241 77.7801 160.765 78.8712C155.503 79.9197 150.563 82.0208 147.017 83.9893L118.934 79.7339C119.177 79.5786 119.424 79.4472 119.674 79.3421C121.519 78.5669 125.965 77.4418 130.937 76.3321C135.71 75.2667 140.806 74.2497 144.149 73.6182C145.683 73.9223 147.375 74.3261 149.199 74.7615L149.201 74.7619L149.202 74.7622L149.203 74.7624L149.204 74.7626L149.204 74.7627C150.392 75.0462 151.636 75.3431 152.929 75.6346C156.269 76.3874 159.844 77.0796 163.216 77.2745C167.374 77.5149 172.511 77.1515 177.061 74.4113C181.673 71.6345 185.443 66.5647 187.113 57.8897C188.498 50.6961 186.167 45.0886 182.709 41.0658C179.292 37.0914 174.777 34.6515 171.621 33.6018L171.147 35.0252L171.621 33.6018ZM115.091 79.1515L114.883 79.12L114.832 79.452C114.113 80.3131 113.495 81.2554 112.975 82.1773C111.916 84.0565 111.156 86.0381 110.702 87.5534C98.3951 90.6068 79.7413 94.9901 62.698 98.4828C53.9763 100.27 45.6926 101.821 38.9036 102.841C32.0413 103.873 26.9034 104.329 24.3508 104.024C15.1868 102.929 11.1632 96.1505 9.97004 91.8823L85.9259 76.0431C94.4831 74.3786 107.539 71.7734 118.91 69.3643C124.596 68.1596 129.869 67.002 133.951 66.0348C135.99 65.5514 137.743 65.113 139.106 64.7381C140.418 64.3769 141.498 64.0412 142.093 63.7509C143.689 62.9738 144.483 61.7156 144.866 60.2694C145.18 59.0845 145.239 57.6743 145.296 56.2889L145.296 56.2887L145.31 55.9628L145.316 55.828C145.454 52.6631 145.734 48.8062 148.389 44.3332C153.64 35.487 163.036 33.9089 170.674 36.4486C173.42 37.3615 177.436 39.5347 180.434 43.0214C183.389 46.4597 185.353 51.1615 184.167 57.3226C182.624 65.3411 179.253 69.5896 175.514 71.8413C171.714 74.1296 167.288 74.5049 163.389 74.2795C160.272 74.0993 156.891 73.4525 153.589 72.708C152.387 72.4371 151.181 72.1496 150.005 71.8691L150.004 71.869L150.004 71.8688L150.002 71.8684L150.001 71.8683C148.008 71.3928 146.099 70.9376 144.438 70.6179L144.157 70.5639L143.877 70.6167C140.519 71.2478 135.234 72.2992 130.283 73.4041C125.395 74.4952 120.656 75.6754 118.512 76.5764C117.191 77.1316 116.054 78.0635 115.091 79.1515ZM116.377 82.3806L147.079 87.0328L147.594 87.111L148.048 86.8521C151.402 84.9358 156.24 82.8318 161.351 81.8134C166.48 80.7915 171.699 80.8967 175.983 83.1586C180.667 85.632 183.716 90.4473 185.171 95.6176C186.637 100.824 186.387 106.031 184.892 109.082C183.374 112.182 179.833 115.41 175.382 117.566C170.949 119.715 165.869 120.675 161.395 119.559C151.284 117.038 147.104 107.905 147.337 99.8357C147.384 98.2137 147.001 96.8373 146.118 95.7316C145.259 94.6575 144.055 94.0005 142.773 93.5444C141.492 93.0892 139.994 92.7869 138.42 92.5132C137.852 92.4145 137.277 92.3198 136.689 92.2232L136.689 92.2231C135.599 92.0437 134.466 91.8573 133.259 91.6249C132.853 91.5466 131.829 91.3176 130.419 91.0019L130.419 91.0019C128.454 90.5622 125.739 89.9546 122.893 89.3519C120.479 88.8407 117.997 88.3395 115.882 87.9674C115.163 87.841 114.47 87.7263 113.827 87.6309C114.234 86.4319 114.825 85.0048 115.589 83.6511C115.84 83.2054 116.103 82.78 116.377 82.3806ZM48.8062 80.7192L78.6538 74.495C72.5332 73.1323 65.8056 71.6218 59.2837 70.1575L59.2823 70.1572L59.2805 70.1568L59.2794 70.1565C45.0024 66.951 31.7119 63.9669 27.9316 63.2392C20.6474 61.837 16.0632 63.5351 13.1914 65.9803C10.808 68.0096 9.4695 70.6689 8.81703 72.8744L48.8334 80.5777L48.8062 80.7192ZM163.714 63.0598C168.324 63.9472 172.78 60.9296 173.667 56.3198C174.555 51.71 171.537 47.2537 166.927 46.3663C162.318 45.4789 157.861 48.4965 156.974 53.1062C156.087 57.716 159.104 62.1724 163.714 63.0598ZM162.958 66.9877C169.737 68.2927 176.29 63.855 177.595 57.0759C178.9 50.2968 174.463 43.7434 167.684 42.4384C160.905 41.1334 154.351 45.571 153.046 52.3501C151.741 59.1292 156.179 65.6826 162.958 66.9877ZM169.632 109.086C174.073 107.565 176.44 102.732 174.92 98.2908C173.399 93.8495 168.566 91.4819 164.125 93.0026C159.683 94.5233 157.316 99.3564 158.836 103.798C160.357 108.239 165.19 110.607 169.632 109.086ZM170.927 112.87C177.459 110.634 180.94 103.526 178.704 96.9951C176.468 90.4638 169.36 86.982 162.829 89.2183C156.298 91.4546 152.816 98.5621 155.052 105.093C157.288 111.625 164.396 115.107 170.927 112.87ZM107.944 80.3287C107.787 81.1422 107.001 81.6747 106.187 81.5181C105.374 81.3615 104.841 80.5751 104.998 79.7616C105.155 78.9481 105.941 78.4156 106.755 78.5722C107.568 78.7288 108.101 79.5152 107.944 80.3287ZM109.908 80.7068C109.542 82.6049 107.708 83.8475 105.809 83.4821C103.911 83.1167 102.669 81.2817 103.034 79.3836C103.399 77.4854 105.234 76.2429 107.133 76.6083C109.031 76.9737 110.273 78.8087 109.908 80.7068Z" fill="black"/>
</svg>
